<svg width="200" height="60" viewBox="0 0 200 60" fill="none" xmlns="http://www.w3.org/2000/svg">
  <!-- Oak Leaf Icon -->
  <path d="M25 15C25 15 20 20 20 25C20 30 25 35 25 35C25 35 30 30 30 25C30 20 25 15 25 15Z" fill="#b89968"/>
  <path d="M30 20C30 20 35 22 38 26C41 30 40 35 40 35C40 35 35 33 32 29C29 25 30 20 30 20Z" fill="#a07d4d"/>
  <path d="M20 20C20 20 15 22 12 26C9 30 10 35 10 35C10 35 15 33 18 29C21 25 20 20 20 20Z" fill="#866440"/>
  <rect x="24" y="35" width="2" height="15" fill="#6e5337"/>
  
  <!-- Iron Anvil Icon -->
  <rect x="25" y="42" width="10" height="6" rx="1" fill="#3d3d3d"/>
  <path d="M26 42L24 38H36L34 42H26Z" fill="#5d5d5d"/>
  <circle cx="30" cy="40" r="2" fill="#b8860b"/>
  
  <!-- Text -->
  <text x="50" y="30" font-family="serif" font-size="18" font-weight="700" fill="#3d3d3d">OAK & IRON</text>
  <text x="50" y="45" font-family="sans-serif" font-size="10" font-weight="400" fill="#6d6d6d" letter-spacing="2">CARPENTRY</text>
</svg>

